<svg width="306" height="324" viewBox="0 0 306 324" fill="none" xmlns="http://www.w3.org/2000/svg">
<g filter="url(#filter0_i_1_35)">
<path d="M218.071 66.3061C218.49 63.9364 218.708 61.4987 218.708 59.0106C218.708 35.7347 199.593 16.8658 176.014 16.8658C158.485 16.8658 143.423 27.294 136.848 42.2086C131.521 37.6688 124.609 34.9279 117.055 34.9279C100.213 34.9279 86.5593 48.5554 86.5593 65.3658C86.5593 66.3019 86.6017 67.2281 86.6846 68.1426C78.5836 72.0595 73.0056 80.2782 73.0056 89.783C73.0056 103.084 83.9284 113.866 97.4023 113.866H212.609C226.083 113.866 237.006 103.084 237.006 89.783C237.006 78.336 228.915 68.7544 218.071 66.3061Z" fill="url(#paint0_linear_1_35)"/>
</g>
<g filter="url(#filter1_f_1_35)">
<path d="M152.86 53C127.794 87.0335 123.447 133.48 145.559 171.78C167.672 210.079 210.069 229.538 252.076 224.847C243.144 236.974 231.581 247.525 217.648 255.57C164.61 286.191 97.3012 268.904 67.3098 216.957C37.3184 165.01 56.0013 98.0759 109.039 67.4545C122.973 59.4097 137.892 54.6717 152.86 53Z" fill="#FFEE94"/>
</g>
<g filter="url(#filter2_i_1_35)">
<path d="M150.523 67.3416C127.642 98.4085 123.674 140.807 143.859 175.768C164.043 210.728 202.745 228.491 241.09 224.209C232.937 235.279 222.382 244.91 209.663 252.254C161.248 280.206 99.8069 264.426 72.4298 217.007C45.0527 169.588 62.107 108.488 110.522 80.5361C123.241 73.1926 136.859 68.8675 150.523 67.3416Z" fill="url(#paint1_linear_1_35)"/>
</g>
<g filter="url(#filter4_i_1_35)">
<path d="M253.452 252.539C253.974 249.583 254.245 246.542 254.245 243.438C254.245 214.403 230.468 190.866 201.138 190.866C179.333 190.866 160.598 203.874 152.419 222.479C145.793 216.816 137.195 213.397 127.799 213.397C106.849 213.397 89.8651 230.396 89.8651 251.366C89.8651 252.533 89.9178 253.689 90.0209 254.83C79.9442 259.716 73.0056 269.968 73.0056 281.824C73.0056 298.416 86.5925 311.866 103.353 311.866H246.659C263.419 311.866 277.006 298.416 277.006 281.824C277.006 267.545 266.942 255.593 253.452 252.539Z" fill="url(#paint2_linear_1_35)"/>
</g>
<defs>
<filter id="filter0_i_1_35" x="73.0056" y="16.8658" width="164" height="107" filterUnits="userSpaceOnUse" color-interpolation-filters="sRGB">
<feFlood flood-opacity="0" result="BackgroundImageFix"/>
<feBlend mode="normal" in="SourceGraphic" in2="BackgroundImageFix" result="shape"/>
<feColorMatrix in="SourceAlpha" type="matrix" values="0 0 0 0 0 0 0 0 0 0 0 0 0 0 0 0 0 0 127 0" result="hardAlpha"/>
<feOffset dy="11"/>
<feGaussianBlur stdDeviation="5"/>
<feComposite in2="hardAlpha" operator="arithmetic" k2="-1" k3="1"/>
<feColorMatrix type="matrix" values="0 0 0 0 1 0 0 0 0 1 0 0 0 0 1 0 0 0 1 0"/>
<feBlend mode="normal" in2="shape" result="effect1_innerShadow_1_35"/>
</filter>
<filter id="filter1_f_1_35" x="7.62939e-06" y="0" width="305.076" height="323.713" filterUnits="userSpaceOnUse" color-interpolation-filters="sRGB">
<feFlood flood-opacity="0" result="BackgroundImageFix"/>
<feBlend mode="normal" in="SourceGraphic" in2="BackgroundImageFix" result="shape"/>
<feGaussianBlur stdDeviation="26.5" result="effect1_foregroundBlur_1_35"/>
</filter>
<filter id="filter2_i_1_35" x="59.3673" y="67.3416" width="181.723" height="202.735" filterUnits="userSpaceOnUse" color-interpolation-filters="sRGB">
<feFlood flood-opacity="0" result="BackgroundImageFix"/>
<feBlend mode="normal" in="SourceGraphic" in2="BackgroundImageFix" result="shape"/>
<feColorMatrix in="SourceAlpha" type="matrix" values="0 0 0 0 0 0 0 0 0 0 0 0 0 0 0 0 0 0 127 0" result="hardAlpha"/>
<feOffset dy="4"/>
<feGaussianBlur stdDeviation="4"/>
<feComposite in2="hardAlpha" operator="arithmetic" k2="-1" k3="1"/>
<feColorMatrix type="matrix" values="0 0 0 0 1 0 0 0 0 1 0 0 0 0 1 0 0 0 0.55 0"/>
<feBlend mode="normal" in2="shape" result="effect1_innerShadow_1_35"/>
</filter>
<filter id="filter4_i_1_35" x="73.0056" y="190.866" width="204" height="131" filterUnits="userSpaceOnUse" color-interpolation-filters="sRGB">
<feFlood flood-opacity="0" result="BackgroundImageFix"/>
<feBlend mode="normal" in="SourceGraphic" in2="BackgroundImageFix" result="shape"/>
<feColorMatrix in="SourceAlpha" type="matrix" values="0 0 0 0 0 0 0 0 0 0 0 0 0 0 0 0 0 0 127 0" result="hardAlpha"/>
<feOffset dy="11"/>
<feGaussianBlur stdDeviation="5"/>
<feComposite in2="hardAlpha" operator="arithmetic" k2="-1" k3="1"/>
<feColorMatrix type="matrix" values="0 0 0 0 1 0 0 0 0 1 0 0 0 0 1 0 0 0 1 0"/>
<feBlend mode="normal" in2="shape" result="effect1_innerShadow_1_35"/>
</filter>
<linearGradient id="paint0_linear_1_35" x1="83.4367" y1="105.205" x2="248.449" y2="-18.6471" gradientUnits="userSpaceOnUse">
<stop stop-color="white"/>
<stop offset="1" stop-color="white" stop-opacity="0.58"/>
</linearGradient>
<linearGradient id="paint1_linear_1_35" x1="155.506" y1="50.8658" x2="119.18" y2="270.817" gradientUnits="userSpaceOnUse">
<stop stop-color="#FFEE94"/>
<stop offset="1" stop-color="#FF9900"/>
</linearGradient>
<linearGradient id="paint2_linear_1_35" x1="85.9809" y1="301.062" x2="291.658" y2="147.124" gradientUnits="userSpaceOnUse">
<stop stop-color="white"/>
<stop offset="1" stop-color="white" stop-opacity="0.58"/>
</linearGradient>
</defs>
</svg>
