<svg width="201" height="260" viewBox="0 0 201 260" fill="none" xmlns="http://www.w3.org/2000/svg">
<path fill-rule="evenodd" clip-rule="evenodd" d="M84.8365 5.41362C82.4223 0.611118 76.6218 -1.45691 71.8999 1.11125C29.0702 24.4051 6.10352e-05 69.7994 6.10352e-05 121.983C6.10352e-05 197.923 61.5609 259.483 137.5 259.483C158.182 259.483 177.797 254.917 195.393 246.738C200.262 244.475 202.055 238.592 199.643 233.795L84.8365 5.41362Z" fill="#E5E5E5"/>
<ellipse cx="167.381" cy="217.256" rx="28.6269" ry="11.6844" transform="rotate(73.3884 167.381 217.256)" fill="#A9A9A9"/>
<ellipse cx="64.3808" cy="47.2559" rx="28.6269" ry="11.6844" transform="rotate(73.3884 64.3808 47.2559)" fill="#A9A9A9"/>
<ellipse cx="28.1146" cy="115.35" rx="28.6269" ry="11.6844" transform="rotate(46.7975 28.1146 115.35)" fill="#A9A9A9"/>
<ellipse cx="53.4466" cy="189.476" rx="20.819" ry="8.49756" transform="rotate(46.7975 53.4466 189.476)" fill="#A9A9A9"/>
<ellipse cx="111.447" cy="226.476" rx="20.819" ry="8.49756" transform="rotate(46.7975 111.447 226.476)" fill="#A9A9A9"/>
<ellipse cx="110.447" cy="147.476" rx="20.819" ry="8.49756" transform="rotate(46.7975 110.447 147.476)" fill="#A9A9A9"/>
</svg>
